<svg version="1.2" xmlns="http://www.w3.org/2000/svg" viewBox="0 0 800 800" width="800" height="800">
	<title>like</title>
	<style>
		.s0 { fill: #1877f2;stroke: #000000;stroke-width: 33.3 } 
	</style>
	<g id="SVGRepo_bgCarrier">
	</g>
	<g id="SVGRepo_tracerCarrier">
	</g>
	<g id="SVGRepo_iconCarrier">
		<path fill-rule="evenodd" class="s0" d="m501.7 300.1h139.5c52.2 0 77.1 33.2 77.1 83.2 0 21.5-4.4 32.5-9.1 44.3-2.7 6.6-5.4 13.4-7.5 22.4-2.1 8.5-1.4 17.7-0.6 27.7 1.2 16.4 2.6 34.9-7.8 55.6-8.7 17.6-20.5 29.2-30.9 39.4-9.3 9.1-17.4 17.1-21.2 27.3l-0.5 1.2c-6.5 17.7-24.1 65.5-96.6 65.5h-125.8c-108.3 0-133.3-25-133.2-100v-197.5c42.6-25.5 87-110.8 99.9-177.5 4.9-25.2 7.1-46.7 8.9-64.4 4.1-40.2 6.2-60.6 33.1-60.6 38.6 0 88 33.3 88 83.3 0 50-13.3 150.1-13.3 150.1zm-314.2 37c6 2.6 11.5 6.2 16.2 10.9 4.6 4.6 8.3 10.1 10.8 16.2 2.5 6.1 3.8 12.6 3.8 19.1v233.4c0 13.2-5.2 25.9-14.6 35.3-9.4 9.4-22.1 14.7-35.4 14.7-13.2 0-25.9-5.3-35.3-14.7-9.4-9.4-14.7-22.1-14.7-35.3v-233.4c0-6.5 1.3-13 3.8-19.1 2.6-6.1 6.2-11.6 10.9-16.2 4.6-4.7 10.1-8.3 16.2-10.9 6.1-2.5 12.6-3.8 19.1-3.8 6.6 0 13.1 1.3 19.2 3.8z"/>
	</g>
</svg>